<?xml version="1.0" encoding="UTF-8" standalone="no"?>
<!DOCTYPE svg PUBLIC "-//W3C//DTD SVG 1.1//EN" "http://www.w3.org/Graphics/SVG/1.1/DTD/svg11.dtd">
<svg width="100%" 
  height="100%" 
  viewBox="0 0 2084 2084" 
  version="1.1" 
  xmlns="http://www.w3.org/2000/svg" 
  xmlns:xlink="http://www.w3.org/1999/xlink" 
  xml:space="preserve" 
  xmlns:serif="http://www.serif.com/" 
  style="fill-rule:evenodd;clip-rule:evenodd;stroke-linejoin:round;stroke-miterlimit:2;"
>
  <path 
  id="About" 
  d="M433.913,1254.37c25.571,68.487 57.218,133.97 99.191,195.084c33.071,48.153 72.279,91.544 119.151,128.426c183.659,144.516 422.938,114.585 632.699,43.542c144.442,-48.921 315.42,-122.862 361.827,-273.115c41.015,-132.608 85.09,-270.516 66.729,-409.904c-39.079,-143.588 -105.716,-284.874 -217.287,-392.472c-43.77,-42.212 -93.802,-77.634 -149.518,-104.917c-51.258,-25.1 -106.337,-42.018 -163.387,-50.802c-55.24,-8.506 -111.795,-8.75 -167.22,-1.759c-417.777,52.698 -671.831,500.601 -582.185,865.917Zm655.632,-815.538c157.361,12.427 307.924,68.67 413.384,180.88c44.842,47.712 75.533,107.936 103.454,165.057c24.846,50.831 50.683,106.911 60.18,162.718c20.655,121.357 -27.26,215.984 -62.121,341.055c-17.67,63.392 -60.244,122.748 -109.789,167.768c-154.953,140.801 -400.801,175.05 -606.877,151.385c-219.644,-25.223 -372.863,-212.921 -405.841,-405.241c-57.817,-337.18 189.604,-796.632 607.61,-763.622Zm332.613,8.54c1.523,1.423 3.045,2.846 4.567,4.27c-1.522,-1.424 -3.044,-2.847 -4.567,-4.27Zm-557.218,354.396c-0,0 16.844,-3.309 27.404,0c25.78,-35.283 48.105,-73.413 91.53,-91.912c107.414,-45.759 258.65,4.173 250.291,130.341c-3.846,58.555 -62.928,90.945 -100.801,128.799c-72.091,72.055 -149.289,176.936 -117.701,281.105c17.63,-1.316 33.067,0.401 50.241,4.269c18.909,-58.71 13.93,-117.275 53.301,-170.955c53.771,-73.203 168.967,-129.435 181.541,-226.025c11.273,-86.594 -52.565,-194.923 -142.78,-220.876c-123.596,-35.555 -291.897,29.277 -293.026,165.254Zm155.29,545.587c-4.674,7.306 -9.351,14.617 -13.73,22.082c-4.33,7.382 -8.541,14.834 -12.39,22.446c-4.23,8.368 -8.407,16.784 -11.832,25.468c-6.153,15.6 -22.781,58.763 8.91,63.293c44.378,6.344 80.389,-36.255 85.557,-73.029c3.879,-27.595 -8.762,-56.566 -41.155,-60.145c-5.085,-0.562 -10.262,-0.562 -15.36,-0.115Zm-4.567,69.269c-4.568,1.423 -9.135,2.847 -13.702,4.27c4.567,-1.423 9.134,-2.847 13.702,-4.27Zm-251.205,153.714c-1.523,1.423 -3.045,2.847 -4.568,4.27c1.523,-1.423 3.045,-2.847 4.568,-4.27Z" 
  style="fill-rule:nonzero;"
  />
</svg>
