<?xml version="1.0" encoding="UTF-8" standalone="no"?><!DOCTYPE svg PUBLIC "-//W3C//DTD SVG 1.1//EN" "http://www.w3.org/Graphics/SVG/1.1/DTD/svg11.dtd"><svg width="100%" height="100%" viewBox="0 0 2084 2084" version="1.1" xmlns="http://www.w3.org/2000/svg" xmlns:xlink="http://www.w3.org/1999/xlink" xml:space="preserve" xmlns:serif="http://www.serif.com/" style="fill-rule:evenodd;clip-rule:evenodd;stroke-linejoin:round;stroke-miterlimit:2;"><path id="Home" d="M1122.82,353.451c-29.445,-8.793 -68.981,9.482 -93.605,22.198c-98.981,51.112 -174.952,133.207 -251.651,206.174c-96.921,92.204 -209.53,185.145 -283.778,294.401c-83.425,122.761 -92.198,297.473 -83.943,432.436c3.073,50.249 14.196,99.716 21.62,149.532c8.217,55.142 9.857,147.592 79.947,175.851c17.078,6.886 35.119,12.182 53.505,15.904c38.202,7.732 77.95,9.107 116.365,16.064c63.444,11.489 78.793,19.057 144.606,21.237c152.23,5.042 303.329,-10.749 455.527,-13.665c90.817,-1.74 177.422,13.248 253.302,-41.535c125.121,-90.334 100.802,-271.388 108.745,-392.096c7.62,-115.811 21.589,-156.884 18.618,-272.464c-2.153,-83.778 -36.629,-128.838 -60.027,-163.499c-16.067,-23.8 -113.225,-161.011 -147.312,-191.751c-40.186,-36.239 -192.701,-217.217 -331.919,-258.787Zm114.199,1266.17c10.298,-96.757 45.935,-190.493 54.818,-287.358c6.725,-73.328 4.13,-151.465 -57.697,-206.7c-88.116,-78.722 -250.646,-59.074 -327.152,26.068c-15.114,16.821 -31.796,52.974 -36.809,73.026c-21.836,87.347 -21.11,172.909 -18.891,261.208c0.574,22.863 5.406,80.117 -1.671,108.78c-2.134,8.64 -4.038,18.889 -11.955,24.469c-9.016,6.354 -21.994,7.225 -33.445,7.529c-28.295,0.751 -116.685,-19.749 -130.24,-21.8c-41.286,-6.248 -108.908,-2.221 -141.836,-34.095c-25.251,-24.442 -33.976,-55.957 -38.668,-87.891c-14.575,-99.195 -9.338,-181.535 -4.564,-285.474c1.437,-31.303 12.945,-220.262 30.24,-260.225c12.94,-29.902 42.052,-52.596 64.849,-77.73c98.741,-108.867 196.299,-206.95 303.54,-309.763c38.633,-37.038 71.059,-65.429 114.957,-95.654c14.546,-10.015 54.064,-39.152 79.944,-42.931c30.263,-4.42 62.784,12.196 86.467,22.876c100.204,45.186 131.511,107.351 207.924,178.281c46.752,43.398 136.793,184.697 215.758,324.921c7.065,12.546 10.921,124.431 -0,245.661c-9.995,110.945 -4.982,231.928 -54.759,338.133c-17.402,37.129 -41.441,66.929 -83.09,85.317c-64.641,28.539 -150.223,18.038 -217.72,13.352Zm-624.869,-795.324c1.7,1.252 3.4,2.504 5.101,3.756c-1.701,-1.252 -3.401,-2.504 -5.101,-3.756Zm291.71,799.339c-0.624,-60.846 -1.248,-121.739 1.521,-182.606c3.379,-74.294 4.768,-180.469 45.468,-253.757c38.615,-69.533 168.031,-74.342 232.322,-38.931c94.167,51.866 45.572,200.496 28.6,271.56c-6.696,28.037 -16.799,55.513 -22.294,83.726c-5.861,30.088 3.817,88.276 -28.927,113.625c-11.309,8.756 -40.984,13.836 -54.242,14.268c-66.973,2.182 -135.911,-15.954 -202.448,-7.885Zm323.18,-142.657c0.04,0.101 0.08,0.202 0.109,0.306c0.093,0.335 0.151,0.803 -0.172,1.076c-0.26,0.22 -0.66,0.233 -0.992,0.2c-0.139,-0.014 -0.483,0.044 -0.412,-0.063c0.382,-0.572 0.931,-1.051 1.467,-1.519Zm277.273,91.144c-0.001,0.232 -0.002,0.464 0.008,0.696c0.029,0.68 0.105,1.354 0.373,1.993c0.12,0.286 0.419,0.551 0.796,0.411c0.677,-0.25 0.747,-0.699 0.735,-1.269c-0.008,-0.427 -0.059,-0.956 -0.176,-1.368c-0.113,-0.394 -0.407,-1.207 -1.085,-0.942c-0.11,0.043 -0.212,0.104 -0.305,0.172c-0.126,0.092 -0.24,0.197 -0.346,0.307Z" style="fill-rule:nonzero;"/></svg>