<?xml version="1.0" encoding="UTF-8" standalone="no"?><!DOCTYPE svg PUBLIC "-//W3C//DTD SVG 1.1//EN" "http://www.w3.org/Graphics/SVG/1.1/DTD/svg11.dtd"><svg width="100%" height="100%" viewBox="0 0 2084 2084" version="1.1" xmlns="http://www.w3.org/2000/svg" xmlns:xlink="http://www.w3.org/1999/xlink" xml:space="preserve" xmlns:serif="http://www.serif.com/" style="fill-rule:evenodd;clip-rule:evenodd;stroke-linejoin:round;stroke-miterlimit:2;"><path id="Info" d="M456.234,859.286c-18.661,118.243 -45.086,230.696 -39.525,351.227c2.3,49.872 17.258,106.395 48.789,147.176c35.716,46.194 80.062,94.527 123.611,134.217c68.821,62.723 159.186,100.99 247.699,130.534c44.652,14.905 89.675,29.132 135.608,40.001c192.309,45.505 415.733,-2.462 549.104,-145.026c34.416,-36.789 62.794,-77.449 86.059,-121.37c43.516,-82.153 76.468,-179.528 86.338,-271.076c8.105,-75.174 -4.539,-158.105 -17.107,-231.357c-5.676,-33.076 -26.966,-141.776 -45.322,-184.273c-63.746,-147.585 -220.531,-266.244 -379.01,-311.355c-81.171,-23.106 -134.154,-12.365 -214.933,9.202c-41.386,11.049 -142.135,37.189 -191.748,61.05c-107.778,51.837 -211.313,154.144 -290.886,236.011c-32.078,33.003 -90.8,105.468 -98.677,155.039Zm1170.31,32.019c52.881,232.584 -25.777,510.782 -243.541,646.328c-226.544,141.011 -559.669,86.163 -749.01,-87.885c-59.667,-54.848 -116.028,-117.935 -138.638,-195.526c-18.896,-64.851 -16.832,-139.384 -10.016,-205.619c5.264,-51.149 10.19,-102.484 20.37,-152.964c5.373,-26.646 49.533,-96.738 59.065,-111.69c85.017,-133.358 215.718,-240.368 371.908,-291.313c76.654,-25.003 152.308,-69.196 233.274,-65.202c40.79,2.012 91.264,22.976 123.431,38.113c115.528,54.366 189.518,144.876 253.577,248.626c33.182,53.742 65.561,115.528 79.58,177.132Zm-547.579,-106.782c24.179,26.853 59.414,1.257 77.132,-19.092c18.933,-21.744 40.164,-57.448 27.365,-86.461c-2.933,-6.65 -7.65,-12.51 -12.302,-18.214c-29.927,-36.687 -101.919,-55.304 -128.836,-4.495c-2.52,4.756 -4.429,9.855 -5.584,15.063c-9.021,40.693 17.247,82.481 42.225,113.199Zm66.731,185.364c0.174,-21.909 0.328,-44.127 -4.239,-65.605c-8.901,-41.859 -49.2,-28.761 -58.807,2.403c-7.508,24.354 -3.276,67.876 -3.456,88.621c-0.843,96.783 0.093,193.622 -3.845,290.336c-1.143,28.071 -19.394,56.796 -10.725,83.662c5.651,17.51 35.534,26.15 49.705,12.542c26.263,-25.217 30.409,-49.833 35.502,-84.93c9.42,-64.907 3.036,-155.47 1.036,-213.467c-1.305,-37.869 -5.541,-75.675 -5.171,-113.562Zm-49.705,116.42c-1.526,1.444 -3.051,2.889 -4.577,4.333c1.526,-1.444 3.051,-2.889 4.577,-4.333Zm384.459,416.003c-1.526,1.445 -3.051,2.889 -4.577,4.334c1.526,-1.445 3.051,-2.889 4.577,-4.334Zm-302.075,117.001c-1.526,1.445 -3.051,2.889 -4.577,4.334c1.526,-1.445 3.051,-2.889 4.577,-4.334Z" style="fill-rule:nonzero;"/></svg>